<svg width="194" height="31" viewBox="0 0 194 31" fill="none" xmlns="http://www.w3.org/2000/svg">
<g id="Frame" clip-path="url(#clip0)">
<path id="Vector" d="M0 1.01403V29.9226H4.60266V11.4906C4.60266 10.202 5.29306 8.5213 8.1122 6.61647C14.4409 2.30259 25.7174 2.63874 30.3201 8.01708L32.8515 5.15984C26.5804 -2.17936 9.95326 -1.339 4.60266 6.0002L4.43007 1.01403H0Z" fill="black"/>
<path id="Vector_2" d="M57.9343 12.9416H32.7347C32.5621 8.40366 38.2004 3.75364 45.6797 3.92171C53.1015 4.08978 57.5891 7.50727 57.9343 12.9416ZM44.8167 30.7014C52.181 30.7014 56.8987 27.9562 60.4658 22.5218L57.1864 20.1688C54.5399 23.4742 51.318 26.7797 44.8167 26.7797C39.0634 26.7797 32.5046 23.0821 32.3895 16.079H62.6521C62.7096 15.3507 62.7671 14.6784 62.7671 14.0061C62.7671 5.82654 55.8631 0 45.8523 0C37.2223 0 27.7869 5.54642 27.7869 15.2386C27.7869 25.6592 36.2443 30.7014 44.8167 30.7014Z" fill="black"/>
<path id="Vector_3" d="M64.7612 1.07009L64.8188 29.9227H69.479V11.2105C69.479 4.87975 74.8871 3.42312 78.6268 3.42312C84.3225 3.42312 86.5663 7.40085 86.5663 12.1629V29.9227H91.169V12.1629C91.169 5.38397 95.7141 3.42312 100.144 3.42312C105.782 3.42312 107.739 6.44844 107.739 11.2105V29.9227H112.169V10.7063C112.169 4.37553 107.278 0.117676 100.72 0.117676C97.4977 0.117676 91.5717 0.845993 89.1553 5.38397C86.854 1.01407 82.7691 0.117676 79.2021 0.117676C75.7501 0.117676 71.2625 1.23816 69.479 4.87975L69.4214 1.07009H64.7612Z" fill="black"/>
<path id="Vector_4" d="M118.337 15.4258C118.337 8.98295 125.126 3.71666 133.526 3.71666C141.983 3.71666 148.714 8.98295 148.714 15.4258C148.714 21.9806 141.983 27.2469 133.526 27.2469C125.126 27.2469 118.337 21.9806 118.337 15.4258ZM113.619 15.4818C113.619 24.0535 122.594 31.0005 133.583 31.0005C144.572 31.0005 153.029 24.0535 153.029 15.4818C153.029 6.96607 144.572 0.019043 133.583 0.019043C122.652 0.019043 113.619 6.96607 113.619 15.4818ZM148.599 29.9921H153.202V1.08351H148.599V29.9921Z" fill="black"/>
<path id="Vector_5" d="M175.474 30.7014C184.162 30.7014 190.491 27.1158 193.77 22.5778L189.915 20.3369C188.074 23.026 181.918 27.1158 175.474 27.1158C169.548 27.1158 159.94 23.4742 159.94 15.0145C159.94 7.67535 168.8 3.58556 175.474 3.58556C184.162 3.58556 188.995 8.40366 190.203 10.7567L194 8.79583C191.354 3.92171 185.37 0 175.474 0C166.672 0 154.935 4.76208 154.935 15.1266C154.935 25.9393 166.787 30.7014 175.474 30.7014Z" fill="black"/>
</g>
<defs>
<clipPath id="clip0">
<rect width="194" height="31" fill="white"/>
</clipPath>
</defs>
</svg>
