<svg width="28" height="29" viewBox="0 0 28 29" fill="none" xmlns="http://www.w3.org/2000/svg">
<path d="M13.9982 16.7667C16.8253 16.7667 19.117 14.4749 19.117 11.6479C19.117 8.82083 16.8253 6.52905 13.9982 6.52905C11.1712 6.52905 8.87939 8.82083 8.87939 11.6479C8.87939 14.4749 11.1712 16.7667 13.9982 16.7667Z" stroke="#ED6565" stroke-width="2" stroke-miterlimit="10"/>
<path d="M13.9985 1.99805C11.5305 1.99653 9.11316 2.69807 7.02942 4.02056C4.94568 5.34305 3.28179 7.23176 2.23252 9.46559C1.18325 11.6994 0.792027 14.1859 1.10465 16.634C1.41727 19.0821 2.4208 21.3905 3.99775 23.289C4.62449 21.5407 6.75958 18.674 13.9985 18.674C21.2374 18.674 23.3725 21.5407 24.0022 23.289C25.5794 21.3903 26.5829 19.0817 26.8954 16.6333C27.208 14.1849 26.8165 11.6982 25.7668 9.46423C24.7172 7.23029 23.0529 5.34162 20.9687 4.01935C18.8845 2.69709 16.4667 1.99596 13.9985 1.99805V1.99805Z" stroke="#ED6565" stroke-width="2" stroke-miterlimit="10"/>
<path d="M13.9983 18.6648C6.75938 18.6648 4.62429 21.5316 3.99756 23.2798C5.21651 24.7507 6.74488 25.9347 8.47376 26.7473C10.2026 27.56 12.0895 27.9813 13.9998 27.9813C15.9101 27.9813 17.797 27.56 19.5258 26.7473C21.2547 25.9347 22.7831 24.7507 24.002 23.2798C23.3723 21.5316 21.2402 18.6648 13.9983 18.6648Z" stroke="#ED6565" stroke-width="2" stroke-miterlimit="10"/>
</svg>
