<svg width="27" height="27" viewBox="0 0 27 27" fill="none" xmlns="http://www.w3.org/2000/svg">
<path d="M13.5455 14.7273C15.9555 14.7273 17.9091 12.7736 17.9091 10.3636C17.9091 7.95367 15.9555 6 13.5455 6C11.1355 6 9.18188 7.95367 9.18188 10.3636C9.18188 12.7736 11.1355 14.7273 13.5455 14.7273Z" stroke="black" stroke-linecap="round" stroke-linejoin="round"/>
<path d="M7 24V21.8182C7 20.6609 7.45974 19.551 8.27808 18.7327C9.09642 17.9143 10.2063 17.4546 11.3636 17.4546H15.7273C16.8846 17.4546 17.9945 17.9143 18.8128 18.7327C19.6312 19.551 20.0909 20.6609 20.0909 21.8182V24" stroke="black" stroke-linecap="round" stroke-linejoin="round"/>
<circle cx="13.5" cy="13.5" r="13" stroke="black"/>
</svg>
