<svg width="67" height="67" viewBox="0 0 67 67" fill="none" xmlns="http://www.w3.org/2000/svg">
<path d="M33.5 67C52.0015 67 67 52.0015 67 33.5C67 14.9985 52.0015 0 33.5 0C14.9985 0 0 14.9985 0 33.5C0 52.0015 14.9985 67 33.5 67Z" fill="white"/>
<path d="M21.3443 22.3091C21.3433 22.0432 21.395 21.7797 21.4963 21.5338C21.5976 21.288 21.7466 21.0646 21.9347 20.8765C22.1227 20.6885 22.3461 20.5395 22.5919 20.4382C22.8378 20.3369 23.1013 20.2852 23.3672 20.2861H26.6933C27.2298 20.2861 27.7444 20.4993 28.1238 20.8787C28.5031 21.2581 28.7163 21.7726 28.7163 22.3091" fill="#ED6565"/>
<path d="M36.5708 22.3091C36.5699 22.0432 36.6215 21.7797 36.7229 21.5338C36.8242 21.288 36.9732 21.0646 37.1612 20.8765C37.3493 20.6885 37.5727 20.5395 37.8185 20.4382C38.0644 20.3369 38.3279 20.2852 38.5938 20.2861H41.9343C42.4708 20.2861 42.9854 20.4993 43.3647 20.8787C43.7441 21.2581 43.9573 21.7726 43.9573 22.3091" fill="#ED6565"/>
<path d="M50.9839 35.9229C50.9839 35.9229 50.1344 29.7388 49.6952 27.3846C49.3568 25.6208 48.3417 22.1292 42.9927 22.1292H23.0076C17.6657 22.1292 16.6434 25.6208 16.3123 27.3846C15.8659 29.7388 15.0236 35.9229 15.0236 35.9229C13.7925 43.7557 16.9602 45.5843 19.6599 45.7067C26.8952 46.0163 27.4567 35.6781 27.4567 35.6781H38.5436C38.5436 35.6781 39.1051 46.0163 46.3403 45.7067C49.0473 45.5843 52.2149 43.7557 50.9839 35.9229Z" fill="#ED6565"/>
<path d="M33.0577 30.9123C34.6084 30.9123 35.8654 29.6552 35.8654 28.1046C35.8654 26.5539 34.6084 25.2969 33.0577 25.2969C31.5071 25.2969 30.25 26.5539 30.25 28.1046C30.25 29.6552 31.5071 30.9123 33.0577 30.9123Z" fill="white"/>
<path d="M25.4838 29.1628H23.6552V27.3342H21.4307V29.1628H19.6021V31.3874H21.4307V33.2088H23.6552V31.3874H25.4838V29.1628Z" fill="white"/>
<path d="M44.2381 29.4795C44.755 29.4795 45.1741 29.0605 45.1741 28.5436C45.1741 28.0267 44.755 27.6077 44.2381 27.6077C43.7213 27.6077 43.3022 28.0267 43.3022 28.5436C43.3022 29.0605 43.7213 29.4795 44.2381 29.4795Z" fill="white"/>
<path d="M44.2381 33.0144C44.755 33.0144 45.1741 32.5954 45.1741 32.0785C45.1741 31.5616 44.755 31.1426 44.2381 31.1426C43.7213 31.1426 43.3022 31.5616 43.3022 32.0785C43.3022 32.5954 43.7213 33.0144 44.2381 33.0144Z" fill="white"/>
<path d="M46.1029 31.1426C46.6198 31.1426 47.0388 30.7235 47.0388 30.2067C47.0388 29.6898 46.6198 29.2708 46.1029 29.2708C45.586 29.2708 45.167 29.6898 45.167 30.2067C45.167 30.7235 45.586 31.1426 46.1029 31.1426Z" fill="white"/>
<path d="M42.3661 31.1426C42.883 31.1426 43.302 30.7235 43.302 30.2067C43.302 29.6898 42.883 29.2708 42.3661 29.2708C41.8492 29.2708 41.4302 29.6898 41.4302 30.2067C41.4302 30.7235 41.8492 31.1426 42.3661 31.1426Z" fill="white"/>
</svg>
