<svg width="67" height="67" viewBox="0 0 67 67" fill="none" xmlns="http://www.w3.org/2000/svg">
<path d="M33.5 67C52.0015 67 67 52.0015 67 33.5C67 14.9985 52.0015 0 33.5 0C14.9985 0 0 14.9985 0 33.5C0 52.0015 14.9985 67 33.5 67Z" fill="white"/>
<path d="M18.3995 31.1816H47.9629C48.4232 31.1858 48.877 31.0718 49.2808 30.8506C49.6845 30.6294 50.0248 30.3084 50.2691 29.9181C50.5134 29.5279 50.6535 29.0815 50.6761 28.6217C50.6986 28.1619 50.6029 27.7039 50.3979 27.2916C48.593 23.6195 44.1352 18.656 33.1734 18.656C22.2116 18.656 17.7693 23.6662 15.9566 27.3228C15.7585 27.7344 15.6685 28.1897 15.695 28.6457C15.7214 29.1018 15.8635 29.5436 16.1079 29.9296C16.3522 30.3156 16.6908 30.633 17.0917 30.8521C17.4926 31.0711 17.9426 31.1845 18.3995 31.1816Z" fill="#ED6565"/>
<path d="M46.8346 42.0733H19.4807C18.9614 42.0696 18.4494 42.196 17.9915 42.4408C17.5335 42.6856 17.1441 43.0412 16.8587 43.4751C16.5733 43.9089 16.401 44.4073 16.3576 44.9248C16.3141 45.4423 16.4009 45.9624 16.6099 46.4378C16.851 46.9986 17.2518 47.4761 17.7622 47.8109C18.2726 48.1456 18.8703 48.3229 19.4807 48.3205H46.8346C47.445 48.3229 48.0427 48.1456 48.5531 47.8109C49.0635 47.4761 49.4643 46.9986 49.7054 46.4378C49.9144 45.9624 50.0012 45.4423 49.9577 44.9248C49.9143 44.4073 49.742 43.9089 49.4566 43.4751C49.1712 43.0412 48.7818 42.6856 48.3238 42.4408C47.8659 42.196 47.3539 42.0696 46.8346 42.0733Z" fill="#ED6565"/>
<path d="M49.7287 37.7598H17.2712C16.399 37.7598 15.6919 38.4668 15.6919 39.3391V39.3469C15.6919 40.2191 16.399 40.9262 17.2712 40.9262H49.7287C50.6009 40.9262 51.308 40.2191 51.308 39.3469V39.3391C51.308 38.4668 50.6009 37.7598 49.7287 37.7598Z" fill="#ED6565"/>
<path d="M16.353 35.1804C16.7448 35.1687 17.1285 35.0664 17.4741 34.8814C17.8196 34.6965 18.1176 34.434 18.3447 34.1145V34.1145C18.5624 33.7856 18.8583 33.5156 19.2058 33.3289C19.5534 33.1422 19.9418 33.0444 20.3363 33.0444C20.7308 33.0444 21.1192 33.1422 21.4668 33.3289C21.8143 33.5156 22.1102 33.7856 22.3279 34.1145L22.3824 34.1846C22.6095 34.504 22.9074 34.7665 23.253 34.9515C23.5986 35.1364 23.9823 35.2387 24.374 35.2504H25.2376C25.6293 35.2387 26.0131 35.1364 26.3586 34.9515C26.7042 34.7665 27.0022 34.504 27.2292 34.1846V34.1846C27.4461 33.8555 27.7412 33.5855 28.0881 33.3987C28.4351 33.2118 28.823 33.114 29.217 33.114C29.611 33.114 29.9989 33.2118 30.3458 33.3987C30.6928 33.5855 30.9879 33.8555 31.2047 34.1846L31.2436 34.2312C31.4686 34.551 31.7651 34.8138 32.1095 34.9988C32.4539 35.1839 32.8367 35.286 33.2275 35.2971H33.9354C34.3272 35.2854 34.7109 35.1831 35.0565 34.9981C35.402 34.8132 35.7001 34.5507 35.9271 34.2312L35.9738 34.169C36.1906 33.84 36.4857 33.5699 36.8327 33.3831C37.1796 33.1962 37.5675 33.0984 37.9615 33.0984C38.3556 33.0984 38.7435 33.1962 39.0904 33.3831C39.4373 33.5699 39.7324 33.84 39.9493 34.169V34.169C40.1763 34.4885 40.4743 34.751 40.8199 34.9359C41.1654 35.1208 41.5492 35.2232 41.9409 35.2348H41.9876C42.3793 35.2232 42.7631 35.1208 43.1086 34.9359C43.4542 34.751 43.7522 34.4885 43.9792 34.169V34.169C44.197 33.84 44.4929 33.5701 44.8404 33.3834C45.1879 33.1966 45.5763 33.0989 45.9709 33.0989C46.3654 33.0989 46.7538 33.1966 47.1014 33.3834C47.4489 33.5701 47.7448 33.84 47.9625 34.169L48.1103 34.3713C48.3497 34.6966 48.6628 34.9607 49.0238 35.1419C49.3848 35.3231 49.7836 35.4163 50.1876 35.4138" stroke="#ED6565" stroke-width="2" stroke-miterlimit="10" stroke-linecap="round"/>
<path d="M41.6686 24.2965H40.8906L41.0618 25.0745C41.2174 25.7902 42.1821 26.1092 42.5789 25.5802C42.9367 25.0978 42.4077 24.2654 41.6686 24.2965Z" fill="white"/>
<path d="M38.4559 26.2025L38.5492 25.4246L37.7713 25.5257C37.0633 25.6113 36.6121 26.5137 37.0633 26.9416C37.4912 27.3539 38.3703 26.895 38.4559 26.2025Z" fill="white"/>
<path d="M29.7812 23.573L29.2288 22.9895L28.7542 23.643C28.3341 24.2343 28.7542 25.199 29.3766 25.1134C30.0146 25.0511 30.2635 24.0942 29.7812 23.573Z" fill="white"/>
<path d="M24.9266 27.3304L25.7046 27.5561L25.7746 26.7781C25.8446 26.0545 24.9966 25.4555 24.491 25.8367C23.9697 26.1868 24.242 27.1359 24.9266 27.3304Z" fill="white"/>
<path d="M31.5938 26.436L31.3604 27.214H32.1383C32.8463 27.214 33.4454 26.436 33.0797 25.9459C32.7374 25.4713 31.796 25.7747 31.5938 26.436Z" fill="white"/>
<path d="M35.3281 22.3437L35.0947 23.1216H35.8727C36.5885 23.1216 37.1875 22.3437 36.8219 21.8458C36.464 21.3712 35.5304 21.6746 35.3281 22.3437Z" fill="white"/>
</svg>
