<svg width="67" height="67" viewBox="0 0 67 67" fill="none" xmlns="http://www.w3.org/2000/svg">
<path d="M33.5 67C52.0015 67 67 52.0015 67 33.5C67 14.9985 52.0015 0 33.5 0C14.9985 0 0 14.9985 0 33.5C0 52.0015 14.9985 67 33.5 67Z" fill="white"/>
<path d="M46.8399 22.1699H16.5699C15.2499 22.1699 14.1899 23.2699 14.1899 24.6299V42.3499C14.1899 43.7099 15.2599 44.8099 16.5699 44.8099H34.8099L37.4599 49.0299C37.6399 49.3699 38.3599 49.3599 38.5099 49.0099L41.1599 44.8199H46.8499C48.1699 44.8199 49.2299 43.7199 49.2299 42.3599V24.6299C49.2199 23.2699 48.1599 22.1699 46.8399 22.1699Z" fill="#ED6565"/>
<path d="M21.48 39.7599C21.28 39.7599 21.09 39.6999 20.92 39.5799C20.6 39.3499 20.45 38.9399 20.56 38.5599L21.14 36.3799L19.39 34.9599C19.08 34.7099 18.96 34.2999 19.08 33.9199C19.2 33.5399 19.54 33.2799 19.94 33.2599L22.19 33.1399L23 31.0399C23.14 30.6699 23.49 30.4299 23.89 30.4299C24.29 30.4299 24.64 30.6699 24.78 31.0399L25.59 33.1399L27.84 33.2599C28.24 33.2799 28.58 33.5399 28.7 33.9199C28.82 34.2999 28.7 34.7099 28.39 34.9599L26.64 36.3799L27.22 38.5599C27.32 38.9499 27.18 39.3499 26.86 39.5799C26.54 39.8099 26.11 39.8299 25.78 39.6099L23.89 38.3799L22 39.5999C21.84 39.7099 21.66 39.7599 21.48 39.7599ZM23.9 36.6899C24.08 36.6899 24.26 36.7399 24.42 36.8399L25.31 37.4199L25.04 36.3999C24.94 36.0399 25.07 35.6499 25.36 35.4099L26.18 34.7399L25.12 34.6799C24.74 34.6599 24.41 34.4199 24.28 34.0699L23.9 33.0799L23.52 34.0699C23.38 34.4199 23.05 34.6599 22.68 34.6799L21.62 34.7399L22.44 35.4099C22.73 35.6499 22.86 36.0399 22.76 36.3999L22.49 37.4199L23.38 36.8399C23.53 36.7399 23.72 36.6899 23.9 36.6899ZM20.03 34.8199C20.02 34.8199 20.02 34.8199 20.03 34.8199V34.8199Z" fill="white"/>
<path d="M43.5498 28.31H19.8598C19.4298 28.31 19.0698 27.96 19.0698 27.52C19.0698 27.08 19.4198 26.73 19.8598 26.73H43.5398C43.9698 26.73 44.3298 27.08 44.3298 27.52C44.3298 27.96 43.9798 28.31 43.5498 28.31Z" fill="white"/>
<path d="M43.5499 34.08H31.4599C31.0299 34.08 30.6699 33.73 30.6699 33.29C30.6699 32.85 31.0199 32.5 31.4599 32.5H43.5399C43.9699 32.5 44.3299 32.85 44.3299 33.29C44.3299 33.73 43.9799 34.08 43.5499 34.08Z" fill="white"/>
<path d="M43.5499 39.85H31.4599C31.0299 39.85 30.6699 39.5 30.6699 39.06C30.6699 38.62 31.0199 38.27 31.4599 38.27H43.5399C43.9699 38.27 44.3299 38.62 44.3299 39.06C44.3299 39.5 43.9799 39.85 43.5499 39.85Z" fill="white"/>
</svg>
