<svg width="67" height="67" viewBox="0 0 67 67" fill="none" xmlns="http://www.w3.org/2000/svg">
<path d="M33.5 67C52.0015 67 67 52.0015 67 33.5C67 14.9985 52.0015 0 33.5 0C14.9985 0 0 14.9985 0 33.5C0 52.0015 14.9985 67 33.5 67Z" fill="white"/>
<path d="M47.598 23.0681H49.4049C49.7929 23.0681 50.1651 23.2223 50.4394 23.4966C50.7138 23.771 50.868 24.1432 50.868 24.5312V46.748C50.868 47.136 50.7138 47.5081 50.4394 47.7825C50.1651 48.0569 49.7929 48.211 49.4049 48.211H19.4631C19.075 48.211 18.7029 48.0569 18.4285 47.7825C18.1541 47.5081 18 47.136 18 46.748V24.5531C18 24.1651 18.1541 23.793 18.4285 23.5186C18.7029 23.2442 19.075 23.0901 19.4631 23.0901H21.27" fill="#E06362"/>
<path d="M47.5979 41.1445V44.0707C47.5979 44.1568 47.5808 44.2421 47.5476 44.3215C47.5144 44.401 47.4658 44.4731 47.4046 44.5337C47.3433 44.5942 47.2707 44.642 47.1909 44.6743C47.1111 44.7066 47.0256 44.7227 46.9395 44.7218H34.4375V39.7693L45.0521 39.5352L47.5979 41.1445Z" fill="white"/>
<path d="M21.3574 41.1446V44.0707C21.3574 44.2434 21.426 44.409 21.5481 44.5311C21.6702 44.6532 21.8358 44.7218 22.0085 44.7218H34.5178V39.7693L23.9324 39.5645L21.3574 41.1446Z" fill="white"/>
<path d="M48.1246 24.3337H20.8016C20.0744 24.3337 19.4849 24.9233 19.4849 25.6505V43.4415C19.4849 44.1687 20.0744 44.7583 20.8016 44.7583H48.1246C48.8518 44.7583 49.4413 44.1687 49.4413 43.4415V25.6505C49.4413 24.9233 48.8518 24.3337 48.1246 24.3337Z" fill="white"/>
<path d="M34.4377 44.2901C34.4377 44.2901 28.5854 39.2717 21.27 41.1152V19.8128C21.2699 19.6558 21.3258 19.504 21.4277 19.3846C21.5297 19.2652 21.6709 19.1862 21.826 19.1617C24.0614 18.8429 26.3389 18.9966 28.5113 19.6127C30.6836 20.2289 32.7026 21.2939 34.4377 22.739V44.2901Z" fill="white" stroke="#E06362" stroke-width="2" stroke-miterlimit="10"/>
<path d="M25.1616 19.0447V27.8963C25.1614 27.9732 25.1807 28.0489 25.2178 28.1163C25.2549 28.1837 25.3085 28.2406 25.3736 28.2815C25.4388 28.3225 25.5132 28.3462 25.59 28.3505C25.6668 28.3548 25.7435 28.3394 25.8127 28.3059L28.0805 27.194L30.0776 29.0814C30.1418 29.1432 30.2229 29.1848 30.3106 29.2008C30.3983 29.2168 30.4888 29.2066 30.5708 29.1715C30.6528 29.1364 30.7226 29.0779 30.7715 29.0033C30.8203 28.9287 30.8462 28.8414 30.8457 28.7522V20.4419" fill="#E06362"/>
<path d="M34.4375 44.3268C34.4375 44.3268 40.2898 39.3084 47.6052 41.1446V19.8422C47.6066 19.6857 47.551 19.5339 47.4487 19.4154C47.3463 19.2969 47.2043 19.2198 47.0492 19.1985C44.8149 18.8775 42.538 19.0301 40.3665 19.6464C38.195 20.2627 36.1774 21.3288 34.4448 22.7757L34.4375 44.3268Z" fill="white" stroke="#E06362" stroke-width="2" stroke-miterlimit="10"/>
<path d="M37.8174 27.0769H44.5036" stroke="#E06362" stroke-width="2" stroke-miterlimit="10" stroke-linecap="round"/>
<path d="M37.8174 30.6836H44.5036" stroke="#E06362" stroke-width="2" stroke-miterlimit="10" stroke-linecap="round"/>
<path d="M37.8174 34.2974H44.5036" stroke="#E06362" stroke-width="2" stroke-miterlimit="10" stroke-linecap="round"/>
</svg>
