<svg width="67" height="67" viewBox="0 0 67 67" fill="none" xmlns="http://www.w3.org/2000/svg">
<path d="M33.5 67C52.0015 67 67 52.0015 67 33.5C67 14.9985 52.0015 0 33.5 0C14.9985 0 0 14.9985 0 33.5C0 52.0015 14.9985 67 33.5 67Z" fill="white"/>
<path d="M27.3263 29.6938V45.1067C27.3263 45.1067 27.3263 49.2164 22.6742 49.4913C22.6742 49.4913 19.4638 50.5094 18.5274 46.2809C18.5274 46.2809 18.0147 42.9219 22.6742 42.2159L24.2794 41.9038C24.2794 41.9038 25.8029 41.9038 25.5651 39.8304V23.1244C25.5651 23.1244 25.4536 21.8313 27.3263 21.6381L41.2158 18.8216C41.3926 18.7831 41.5758 18.7863 41.7512 18.8309C41.9265 18.8755 42.0891 18.9602 42.226 19.0784C42.363 19.1966 42.4706 19.3451 42.5403 19.512C42.61 19.679 42.6399 19.8598 42.6278 20.0403V42.0672C42.6267 42.9463 42.3658 43.8054 41.8779 44.5366C41.39 45.2678 40.6968 45.8384 39.8855 46.1769C39.8855 46.1769 36.9575 47.0761 35.4267 45.9019C35.4267 45.9019 32.298 43.7468 34.8841 40.4249C34.8841 40.4249 35.5084 39.4811 39.343 38.7751C39.343 38.7751 41.0226 38.9758 40.9482 36.9767L40.9037 27.1597C40.9037 27.1597 41.1043 25.9484 39.8855 26.2605L28.1512 28.6831C28.1512 28.6831 27.3263 28.6757 27.3263 29.6938Z" fill="#E06362"/>
<path d="M12.6565 27.9253H12.6491C11.9883 27.9253 11.4526 28.461 11.4526 29.1218V39.288C11.4526 39.9488 11.9883 40.4845 12.6491 40.4845H12.6565C13.3173 40.4845 13.853 39.9488 13.853 39.288V29.1218C13.853 28.461 13.3173 27.9253 12.6565 27.9253Z" fill="#E06362"/>
<path d="M17.138 32.4211H17.1306C16.4698 32.4211 15.9341 32.9568 15.9341 33.6176V36.4713C15.9341 37.1321 16.4698 37.6678 17.1306 37.6678H17.138C17.7988 37.6678 18.3345 37.1321 18.3345 36.4713V33.6176C18.3345 32.9568 17.7988 32.4211 17.138 32.4211Z" fill="#E06362"/>
<path d="M46.1429 29.3298H46.1354C45.4746 29.3298 44.939 29.8655 44.939 30.5263V35.9959C44.939 36.6567 45.4746 37.1923 46.1354 37.1923H46.1429C46.8037 37.1923 47.3393 36.6567 47.3393 35.9959V30.5263C47.3393 29.8655 46.8037 29.3298 46.1429 29.3298Z" fill="#E06362"/>
<path d="M50.7059 26.9517H50.6984C50.0376 26.9517 49.502 27.4873 49.502 28.1481V35.9958C49.502 36.6566 50.0376 37.1923 50.6984 37.1923H50.7059C51.3666 37.1923 51.9023 36.6566 51.9023 35.9958V28.1481C51.9023 27.4873 51.3666 26.9517 50.7059 26.9517Z" fill="#E06362"/>
<path d="M21.8123 24.2764H21.8049C21.1441 24.2764 20.6084 24.812 20.6084 25.4728V38.7158C20.6084 39.3765 21.1441 39.9122 21.8049 39.9122H21.8123C22.4731 39.9122 23.0088 39.3765 23.0088 38.7158V25.4728C23.0088 24.812 22.4731 24.2764 21.8123 24.2764Z" fill="#E06362"/>
<path d="M55.3509 29.3298H55.3434C54.6827 29.3298 54.147 29.8655 54.147 30.5263V33.6624C54.147 34.3232 54.6827 34.8589 55.3434 34.8589H55.3509C56.0117 34.8589 56.5473 34.3232 56.5473 33.6624V30.5263C56.5473 29.8655 56.0117 29.3298 55.3509 29.3298Z" fill="#E06362"/>
</svg>
